<svg width="206" height="200" viewBox="0 0 206 200" fill="none" xmlns="http://www.w3.org/2000/svg">
<path fill-rule="evenodd" clip-rule="evenodd" d="M48.0553 181.501C32.9124 170.735 21.1676 156.038 13.9827 139.152C10.1247 130.085 16.2839 120.426 25.8919 118.238V118.238C35.5061 116.049 44.8743 122.276 49.6233 130.917C60.5537 150.806 81.7027 164.286 106 164.286C141.504 164.286 170.286 135.504 170.286 100C170.286 64.496 141.504 35.7143 106 35.7143C81.8022 35.7143 60.727 49.0837 49.7581 68.8389C44.9717 77.4593 35.5765 83.6445 25.972 81.414V81.414C16.3736 79.1848 10.2563 69.4991 14.1537 60.4486C21.4119 43.594 33.2204 28.9483 48.4099 18.2481C68.4955 4.09879 93.087 -2.16108 117.493 0.662649C141.899 3.48638 164.412 15.1961 180.736 33.5578C197.06 51.9196 206.053 75.6483 206 100.217C205.946 124.786 196.85 148.475 180.446 166.766C164.043 185.057 141.48 196.669 117.061 199.386C92.6433 202.104 68.0792 195.737 48.0553 181.501Z" fill="url(#paint0_angular)"/>
<path d="M3.10694 42.5067C3.18602 40.1059 5.91396 38.767 7.86148 40.1732L61.3141 78.7677C63.1494 80.0928 62.9119 82.8957 60.8797 83.8931L5.25641 111.192C3.22423 112.19 0.861756 110.663 0.936287 108.401L3.10694 42.5067Z" fill="#EDD109"/>
<defs>
<radialGradient id="paint0_angular" cx="0" cy="0" r="1" gradientUnits="userSpaceOnUse" gradientTransform="translate(109.408 100) rotate(-166.687) scale(99.2595 102.397)">
<stop stop-color="#EDD109"/>
<stop offset="0.9999" stop-color="#D7B404"/>
<stop offset="1" stop-color="#BF9D0A"/>
</radialGradient>
</defs>
</svg>
