<svg width="188" height="178" viewBox="0 0 188 178" fill="none" xmlns="http://www.w3.org/2000/svg">
<path d="M92.2311 1.35268C92.9815 -0.0696137 95.0185 -0.0696154 95.7689 1.35268L124.106 55.0613C124.395 55.6098 124.923 55.9931 125.534 56.0988L185.37 66.452C186.955 66.7262 187.584 68.6635 186.464 69.8167L144.14 113.364C143.708 113.808 143.507 114.428 143.595 115.042L152.239 175.15C152.468 176.741 150.82 177.939 149.377 177.229L94.8825 150.434C94.326 150.16 93.674 150.16 93.1175 150.434L38.6232 177.229C37.1801 177.939 35.5322 176.741 35.7611 175.15L44.4051 115.042C44.4934 114.428 44.2919 113.808 43.8597 113.364L1.53632 69.8167C0.415526 68.6635 1.04498 66.7262 2.62955 66.452L62.4662 56.0988C63.0772 55.9931 63.6047 55.6098 63.8941 55.0613L92.2311 1.35268Z" fill="url(#paint0_linear)"/>
<defs>
<linearGradient id="paint0_linear" x1="5.11111" y1="67.6296" x2="178.444" y2="72.0741" gradientUnits="userSpaceOnUse">
<stop stop-color="#4A99D8"/>
<stop offset="1" stop-color="#54C2F4"/>
</linearGradient>
</defs>
</svg>
